<svg width="24" height="24" viewBox="0 0 24 24" fill="none" xmlns="http://www.w3.org/2000/svg">
<path d="M1.5 3.5C1.5 2.39543 2.39543 1.5 3.5 1.5H20.5C21.6046 1.5 22.5 2.39543 22.5 3.5V20.5C22.5 21.6046 21.6046 22.5 20.5 22.5H3.5C2.39543 22.5 1.5 21.6046 1.5 20.5V3.5Z" fill="#1AAE72"/>
<path d="M19.6125 8.2375L9.9875 17.8625C9.8125 18.0375 9.6375 18.125 9.375 18.125C9.1125 18.125 8.9375 18.0375 8.7625 17.8625L4.3875 13.4875C4.0375 13.1375 4.0375 12.6125 4.3875 12.2625C4.7375 11.9125 5.2625 11.9125 5.6125 12.2625L9.375 16.025L18.3875 7.0125C18.7375 6.6625 19.2625 6.6625 19.6125 7.0125C19.9625 7.3625 19.9625 7.8875 19.6125 8.2375Z" fill="black"/>
<mask id="mask0_4503_27167" style="mask-type:alpha" maskUnits="userSpaceOnUse" x="4" y="6" width="16" height="13">
<path d="M19.6125 8.2375L9.9875 17.8625C9.8125 18.0375 9.6375 18.125 9.375 18.125C9.1125 18.125 8.9375 18.0375 8.7625 17.8625L4.3875 13.4875C4.0375 13.1375 4.0375 12.6125 4.3875 12.2625C4.7375 11.9125 5.2625 11.9125 5.6125 12.2625L9.375 16.025L18.3875 7.0125C18.7375 6.6625 19.2625 6.6625 19.6125 7.0125C19.9625 7.3625 19.9625 7.8875 19.6125 8.2375Z" fill="white"/>
</mask>
<g mask="url(#mask0_4503_27167)">
<rect x="1.5" y="1.5" width="21" height="21" fill="white"/>
</g>
</svg>
