<svg width="16" height="16" viewBox="0 0 16 16" fill="none" xmlns="http://www.w3.org/2000/svg">
<path d="M11.5639 3.80584H11.3058V1.73329C11.3058 0.778201 10.5059 0.000976562 9.52271 0.000976562H6.47664C5.49354 0.000976562 4.69352 0.778085 4.69352 1.73329L4.69364 3.80584H4.43612C3.36863 3.80584 2.5 4.64973 2.5 5.6868V12.9826C2.5 14.0196 3.36863 14.8641 4.43612 14.8641H4.71094V15.594C4.71094 15.8186 4.89867 16.001 5.12989 16.001C5.36111 16.001 5.54884 15.8186 5.54884 15.594V14.8641H10.4512V15.594C10.4512 15.8186 10.6389 16.001 10.8701 16.001C11.1013 16.001 11.2891 15.8186 11.2891 15.594V14.8641H11.5639C12.6314 14.8641 13.5 14.0196 13.5 12.9826V5.6868C13.5 4.64973 12.6314 3.80584 11.5639 3.80584H11.5639ZM5.53163 1.73329C5.53163 1.22702 5.95561 0.815007 6.47732 0.815007H9.52279C10.0445 0.815007 10.468 1.22691 10.468 1.73329V3.80584H5.53157L5.53163 1.73329ZM12.6622 12.9826C12.6622 13.5714 12.1695 14.0501 11.564 14.0501H10.8752C10.8736 14.0501 10.8718 14.049 10.8696 14.049H5.12996C5.12833 14.049 5.12657 14.0501 5.12435 14.0501H4.4362C3.83069 14.0501 3.33798 13.5714 3.33798 12.9826V5.68686C3.33798 5.09861 3.83069 4.61993 4.4362 4.61993H11.564C12.1695 4.61993 12.6623 5.09861 12.6623 5.68686L12.6622 12.9826Z" fill="#7B7988"/>
<path d="M5.54712 6.3291C5.31591 6.3291 5.12817 6.51149 5.12817 6.73612V11.9334C5.12817 12.158 5.31591 12.3404 5.54712 12.3404C5.77834 12.3404 5.96607 12.158 5.96607 11.9334V6.73612C5.96607 6.51149 5.77846 6.3291 5.54712 6.3291Z" fill="#7B7988"/>
<path d="M8.0022 6.3291C7.77098 6.3291 7.58325 6.51149 7.58325 6.73612V11.9334C7.58325 12.158 7.77098 12.3404 8.0022 12.3404C8.23342 12.3404 8.42115 12.158 8.42115 11.9334V6.73612C8.42115 6.51149 8.23342 6.3291 8.0022 6.3291Z" fill="#7B7988"/>
<path d="M10.4553 6.3291C10.2241 6.3291 10.0364 6.51149 10.0364 6.73612V11.9334C10.0364 12.158 10.2241 12.3404 10.4553 12.3404C10.6865 12.3404 10.8743 12.158 10.8743 11.9334V6.73612C10.8743 6.51149 10.6865 6.3291 10.4553 6.3291Z" fill="#7B7988"/>
</svg>
