<svg xmlns="http://www.w3.org/2000/svg" width="24" height="24" fill="none" viewBox="0 0 24 24">
  <circle cx="12" cy="12" r="10" fill="#379AFF"/>
  <path fill="#fff" fill-rule="evenodd" d="M17.347 14.43c0 .292-.194.487-.486.487H7.14c-.292 0-.486-.195-.486-.486 0-.292.194-.486.486-.486a.975.975 0 0 0 .972-.973v-2.43a3.9 3.9 0 0 1 3.89-3.89 3.9 3.9 0 0 1 3.888 3.89v2.43c0 .535.437.973.972.973.292 0 .486.194.486.486Zm-4.083 2.188c-.292.486-.778.73-1.264.73-.243 0-.486-.05-.73-.195a1.411 1.411 0 0 1-.534-.535c-.146-.243-.048-.535.195-.68.243-.146.534-.05.68.194.015.015.03.034.046.055.037.048.08.106.149.14.243.145.534.048.68-.195.146-.243.438-.292.68-.194.244.097.244.437.098.68Zm1.653-3.646c0 .34.097.68.243.973H8.84c.146-.292.243-.632.243-.973v-2.43A2.925 2.925 0 0 1 12 7.625a2.925 2.925 0 0 1 2.917 2.917v2.43Z" clip-rule="evenodd"/>
</svg>
