<svg width="30" height="30" viewBox="0 0 30 30" fill="none" xmlns="http://www.w3.org/2000/svg">
<rect width="30" height="30" rx="15" fill="#DBDCE1"/>
<rect x="3" y="3" width="24" height="24" rx="12" fill="white" stroke="#BFBFBF"/>
<path fill-rule="evenodd" clip-rule="evenodd" d="M11.1455 9.77977H11.6771C11.6771 9.43322 11.7215 9 12.2088 9H17.7911C18.1898 9 18.2784 9.43319 18.2784 9.77977H18.8101C19.6519 9.77977 20.3164 10.4296 20.3164 11.2527V11.7292H20.7594C20.9366 11.7292 21.1139 11.7726 21.2024 11.9025C21.424 12.0758 21.424 12.2924 21.424 12.509H21.557C21.7785 12.509 22 12.7256 22 12.9422V14.6317C22 14.8484 21.7784 15.0649 21.557 15.0649H21.424C21.424 15.2816 21.424 15.4981 21.2024 15.6714C20.9809 15.9313 20.6265 15.8447 20.3164 15.8447V18.574C20.3164 19.3971 19.6961 20.0469 18.8987 20.0902C18.8987 20.4368 18.943 21 18.4113 21H17.4809C16.9493 21 17.0379 20.4368 17.0379 20.0902H12.9178C12.9178 20.4368 13.0064 21 12.4747 21H11.5443C11.0127 21 11.1013 20.4368 11.1013 20.0902C10.3038 20.0469 9.63925 19.3971 9.63925 18.574V15.8447H9.19623C8.84181 15.8447 8.57599 15.5847 8.57599 15.2382V15.0649C8.39877 15.0215 8 14.9783 8 14.6317V12.9422C8 12.5956 8.35442 12.509 8.57599 12.509V12.3357C8.57599 12.1624 8.62034 11.9892 8.7532 11.9025C8.84181 11.7725 9.01902 11.7292 9.19622 11.7292H9.63924V11.2527C9.63924 10.4295 10.3039 9.77978 11.1456 9.77978L11.1455 9.77977ZM15.0443 11.2094V16.0614H18.6773C19.0761 16.0614 19.3862 15.7148 19.3862 15.3683V11.9024C19.3862 11.5125 19.076 11.2093 18.6773 11.2093L15.0443 11.2094ZM14.9114 16.0614V11.2094H11.2783C10.9239 11.2094 10.5695 11.5127 10.5695 11.9025V15.3683C10.5695 15.7149 10.9239 16.0614 11.2783 16.0614L14.9114 16.0614ZM13.4937 17.9242H16.5508C16.6394 17.9242 16.6394 17.9242 16.6394 17.9676V18.0109C16.6394 18.0976 16.595 18.1409 16.4622 18.1409H13.5824C13.4938 18.1409 13.4051 18.0976 13.4051 18.0109V17.9676C13.4051 17.9242 13.4495 17.9242 13.4938 17.9242H13.4937ZM13.7152 18.2707H16.3292C16.3735 18.2707 16.4178 18.2707 16.4178 18.3141V18.3575C16.4178 18.4441 16.3292 18.4875 16.2406 18.4875H13.8038C13.7152 18.4875 13.6709 18.4441 13.6709 18.3575V18.3141C13.6709 18.2707 13.6709 18.2707 13.7152 18.2707H13.7152ZM13.9811 18.6173H16.1077C16.1521 18.6173 16.1963 18.6173 16.1963 18.6607V18.704C16.1963 18.7907 16.1077 18.834 16.0634 18.834H14.0254C13.9368 18.834 13.8925 18.7907 13.8925 18.704V18.6607C13.8925 18.6173 13.9368 18.6173 13.9811 18.6173H13.9811ZM11.1898 17.8375H12.2974C12.7404 17.8375 13.0949 18.3141 13.0949 18.6607C13.0949 18.8339 12.9177 19.0072 12.6961 19.0072H11.1898C11.0126 19.0072 10.8354 18.8339 10.8354 18.6607V18.1841C10.8354 18.0108 11.0126 17.8375 11.1898 17.8375ZM18.7659 17.8375H17.7026C17.2152 17.8375 16.8608 18.3141 16.8608 18.6607C16.8608 18.8339 17.038 19.0072 17.2596 19.0072H18.7659C18.9875 19.0072 19.1647 18.8339 19.1647 18.6607V18.1841C19.1647 18.0108 18.9875 17.8375 18.7659 17.8375H18.7659ZM9.6391 15.4115V12.1626H9.19608C9.10747 12.1626 9.01887 12.2059 9.01887 12.3359V12.5091C9.19608 12.5525 9.37329 12.7258 9.37329 12.9423V14.6319C9.37329 14.8485 9.19607 15.0218 9.01887 15.0218V15.2384C9.01887 15.3251 9.10747 15.4117 9.19608 15.4117H9.6391V15.4115ZM20.3165 12.1626V15.4115H20.7596C20.8925 15.4115 20.9811 15.3249 20.9811 15.2382V15.0216C20.7596 15.0216 20.5823 14.8483 20.5823 14.6316V12.9421C20.5823 12.7254 20.7596 12.5522 20.9811 12.5089C20.9811 12.3789 20.9811 12.1623 20.7596 12.1623H20.3165V12.1626Z" fill="#BFBFBF"/>
</svg>
