<svg xmlns="http://www.w3.org/2000/svg" width="30" height="30" fill="none" viewBox="0 0 30 30">
  <rect width="30" height="30" fill="#C3E1FF" rx="15"/>
  <rect width="24" height="24" x="3" y="3" fill="#fff" stroke="#379AFF" rx="12"/>
  <path fill="#0E286A" d="M18.483 21.994h-.565c-.436-.012-.733-.354-.739-.855 0-.412 0-.406.35-.453.68-.095 1.367-.195 2.036-.371.168-.048.273-.036.244.223-.023.2 0 .407 0 .607-.012.507-.308.843-.745.855h-.587l.006-.006ZM11.495 21.994c-.198 0-.39.006-.587 0-.402-.018-.693-.348-.71-.813-.012-.242.005-.49 0-.73-.006-.166.058-.172.163-.148.663.171 1.344.271 2.018.371.012 0 .03 0 .041.006.134.018.344-.041.39.083.07.176.047.412 0 .618-.087.366-.343.595-.675.607-.21.006-.419 0-.628 0l-.012.006Z"/>
  <path fill="#0E286A" d="M22.282 10.75h-1.53c-.134 0-.181-.024-.175-.172.011-.447 0-.89 0-1.337 0-.1-.012-.16-.123-.206a13.765 13.765 0 0 0-4.369-1.002 15.277 15.277 0 0 0-3.48.177c-1.029.165-2.036.43-3.019.807-.122.047-.163.112-.163.247.012.436 0 .878.006 1.314 0 .142-.04.177-.174.171-.512-.006-1.019 0-1.53 0-.408 0-.71.289-.716.695a60.536 60.536 0 0 0 0 2.056c0 .377.262.649.628.696.157.023.32.017.477 0a.69.69 0 0 0 .594-.684v-.595c0-.477 0-.465.477-.477.192-.006.238.053.238.242-.006 2.362 0 4.719 0 7.081 0 .318.053.389.361.466 1.396.347 2.816.524 4.259.583a22.242 22.242 0 0 0 6.179-.595c.296-.07.355-.147.355-.454V13c0-.183-.082-.43.035-.525.11-.094.343-.023.523-.035.122-.012.151.035.151.153-.005.306-.005.607 0 .913a.7.7 0 0 0 .594.69c.157.023.32.03.477.005.373-.047.628-.318.634-.695.012-.683.012-1.372 0-2.056-.006-.412-.314-.695-.715-.695l.006-.006Zm-3.12 5.85a15.465 15.465 0 0 1-4.223.488 19.674 19.674 0 0 1-4.061-.483c-.186-.041-.256-.1-.25-.312.017-.86.005-1.726.005-2.586V11.12c0-.36.105-.471.46-.471h7.808c.35 0 .46.118.46.465v5.214c0 .171-.059.224-.204.265l.006.006Z"/>
  <path fill="#fff" d="M11.05 19.496a.862.862 0 0 1-.86-.89c0-.483.39-.866.878-.86.483 0 .879.4.867.872a.882.882 0 0 1-.884.878ZM18.94 19.496a.86.86 0 0 1-.873-.884.867.867 0 0 1 .896-.866c.477.006.85.4.844.896 0 .477-.39.86-.867.854Z"/>
</svg>
