<svg xmlns="http://www.w3.org/2000/svg" width="30" height="30" fill="none" viewBox="0 0 30 30">
  <rect width="30" height="30" fill="#DBDCE1" rx="15"/>
  <rect width="24" height="24" x="3" y="3" fill="#fff" stroke="#BFBFBF" rx="12"/>
  <path fill="#BFBFBF" d="M15 19.5h-3.548c-.13 0-.165.037-.158.18.007.444 0 .889 0 1.34 0 .542-.297.911-.786.964a2.03 2.03 0 0 1-.565-.008c-.413-.067-.71-.436-.716-.895v-1.318c0-.248 0-.248-.235-.248-.138 0-.282 0-.42-.046A.87.87 0 0 1 8 18.641v-3.719c0-.625.503-1.19 1.075-1.25.124-.014.172-.06.22-.188.414-1.076.834-2.153 1.255-3.237.227-.58.627-.873 1.205-.873h1.461c.104 0 .138-.03.131-.143a3.157 3.157 0 0 1 0-.361c.048-.505.365-.844.84-.859a29.043 29.043 0 0 1 1.62 0c.51.015.84.4.848.956 0 .128-.056.302.027.377.076.068.228.022.352.022h1.268c.53.008.916.286 1.123.821.434 1.1.854 2.198 1.281 3.297.042.106.09.159.2.166.593.06 1.082.617 1.089 1.265.007 1.234.007 2.47 0 3.704 0 .466-.33.828-.758.866a1.428 1.428 0 0 1-.31 0c-.138-.016-.159.045-.159.18.007.444 0 .889 0 1.34 0 .542-.303.911-.792.956a2.363 2.363 0 0 1-.565-.007c-.407-.068-.71-.43-.71-.881V19.65c0-.128-.027-.165-.145-.158h-3.562l.007.008Z"/>
  <path fill="#fff" d="M19.872 13.632h-9.737c.131-.331.255-.655.38-.979.254-.67.516-1.34.771-2.01.11-.293.22-.369.517-.369h6.367c.262 0 .42.113.523.384.366.949.752 1.898 1.13 2.846.014.038.028.083.049.136v-.008ZM19.727 16.335h-.58c-.261 0-.42-.166-.433-.452a4.769 4.769 0 0 1 0-.444c.013-.263.179-.444.427-.444h1.192c.248 0 .413.166.434.437.014.173.02.354-.007.527-.034.226-.179.361-.386.369h-.647v.007ZM10.267 16.34h-.614c-.227 0-.386-.15-.406-.398a3.363 3.363 0 0 1 0-.527c.02-.249.179-.407.406-.407.407 0 .813-.007 1.22 0 .241 0 .4.188.413.46a4.45 4.45 0 0 1 0 .429c-.013.286-.172.451-.434.451h-.592l.007-.007Z"/>
</svg>
