
<svg width="30" height="30" viewBox="0 0 30 30" fill="none" xmlns="http://www.w3.org/2000/svg">
<rect width="30" height="30" rx="15" fill="#DBDCE1"/>
<rect x="3" y="3" width="24" height="24" rx="12" fill="white" stroke="#BFBFBF"/>
<path d="M15.0009 19.4995C13.8157 19.4995 12.6374 19.4995 11.4522 19.4995C11.3213 19.4995 11.2868 19.5372 11.2937 19.6802C11.3006 20.1244 11.2937 20.5686 11.2937 21.0203C11.2937 21.5623 10.9974 21.9312 10.5082 21.9839C10.3221 22.0065 10.1292 22.0065 9.94315 21.9764C9.52972 21.9086 9.23342 21.5397 9.22653 21.0805C9.22653 20.6439 9.22653 20.1997 9.22653 19.763C9.22653 19.5146 9.22653 19.5146 8.99225 19.5146C8.85444 19.5146 8.70973 19.5146 8.57192 19.4694C8.23428 19.349 8 19.0253 8 18.6413C8 17.3991 8 16.1645 8 14.9223C8 14.2975 8.50301 13.7328 9.07493 13.6726C9.19897 13.6576 9.2472 13.6124 9.29544 13.4844C9.70887 12.4078 10.1292 11.3313 10.5495 10.2472C10.7769 9.66753 11.1766 9.37392 11.7554 9.37392C12.2446 9.37392 12.727 9.37392 13.2162 9.37392C13.3196 9.37392 13.354 9.34381 13.3471 9.23088C13.3402 9.11043 13.3402 8.98998 13.3471 8.86952C13.3953 8.36512 13.7123 8.02635 14.1878 8.01129C14.7252 7.99624 15.2627 7.99624 15.8071 8.01129C16.317 8.02635 16.6477 8.41029 16.6546 8.96739C16.6546 9.09537 16.5995 9.26853 16.6822 9.34381C16.758 9.41156 16.9096 9.36639 17.0336 9.36639C17.4539 9.36639 17.8811 9.36639 18.3015 9.36639C18.832 9.37392 19.2179 9.65247 19.4246 10.187C19.8587 11.2861 20.2791 12.3853 20.7063 13.4844C20.7476 13.5898 20.7959 13.6425 20.9061 13.65C21.4987 13.7102 21.9879 14.2673 21.9948 14.9148C22.0017 16.1494 22.0017 17.3841 21.9948 18.6187C21.9948 19.0855 21.6641 19.4468 21.2369 19.4845C21.1335 19.492 21.0233 19.4995 20.9268 19.4845C20.789 19.4694 20.7683 19.5297 20.7683 19.6652C20.7752 20.1093 20.7683 20.5535 20.7683 21.0052C20.7683 21.5473 20.4651 21.9161 19.9759 21.9613C19.7898 21.9764 19.5969 21.9839 19.4109 21.9538C19.0043 21.886 18.7011 21.5247 18.7011 21.073C18.7011 20.5987 18.7011 20.1244 18.7011 19.6501C18.7011 19.5221 18.6736 19.4845 18.5564 19.492C17.3712 19.492 16.1792 19.492 14.994 19.492L15.0009 19.4995Z" fill="#BFBFBF"/>
<path d="M19.8717 13.6321H10.1353C10.2662 13.3008 10.3902 12.9771 10.5142 12.6534C10.7692 11.9833 11.031 11.3133 11.286 10.6433C11.3962 10.3497 11.5065 10.2744 11.8028 10.2744C13.9251 10.2744 16.0474 10.2744 18.1697 10.2744C18.4316 10.2744 18.59 10.3873 18.6934 10.6584C19.0586 11.6069 19.4445 12.5555 19.8235 13.5041C19.8372 13.5417 19.851 13.5869 19.8717 13.6396V13.6321Z" fill="white"/>
<path d="M19.7266 16.3352C19.5336 16.3352 19.3407 16.3352 19.1478 16.3352C18.8859 16.3352 18.7274 16.1695 18.7137 15.8835C18.7068 15.7329 18.7068 15.5899 18.7137 15.4393C18.7274 15.1758 18.8928 14.9951 19.1409 14.9951C19.5405 14.9951 19.9333 14.9951 20.333 14.9951C20.581 14.9951 20.7464 15.1607 20.7671 15.4318C20.7808 15.6049 20.7877 15.7856 20.7602 15.9587C20.7257 16.1846 20.581 16.3201 20.3743 16.3276C20.3605 16.3276 20.3536 16.3276 20.3398 16.3276C20.1331 16.3276 19.9333 16.3276 19.7266 16.3276V16.3352Z" fill="white"/>
<path d="M10.2665 16.3407C10.0598 16.3407 9.85993 16.3407 9.65321 16.3407C9.42582 16.3407 9.26734 16.1902 9.24666 15.9417C9.23288 15.7686 9.23288 15.5879 9.24666 15.4148C9.26734 15.1663 9.42582 15.0082 9.65321 15.0082C10.0598 15.0082 10.4663 15.0007 10.8729 15.0082C11.114 15.0082 11.2725 15.1964 11.2863 15.4675C11.2932 15.6105 11.2932 15.7535 11.2863 15.8966C11.2725 16.1827 11.114 16.3483 10.8522 16.3483C10.6523 16.3483 10.4525 16.3483 10.2596 16.3483L10.2665 16.3407Z" fill="white"/>
</svg>
