<svg width="30" height="30" viewBox="0 0 30 30" fill="none" xmlns="http://www.w3.org/2000/svg">
<rect width="30" height="30" rx="15" fill="#C3E1FF"/>
<rect x="3" y="3" width="24" height="24" rx="12" fill="white" stroke="#379AFF"/>
<path fill-rule="evenodd" clip-rule="evenodd" d="M21.1425 14.3382C21.1425 12.0222 19.3408 10.1293 17.0841 9.99336V8.85247C17.0841 8.38362 16.7036 8 16.2384 8H13.7554C13.2842 8 12.9036 8.38362 12.9036 8.85247V9.99339C10.6297 10.1121 8.82259 12.0165 8.82259 14.3382V15.6081C8.30334 16.0668 8 16.7312 8 17.4308V18.8948C8 19.5181 8.50173 20.0296 9.12579 20.0296H9.37972V21.171C9.37972 21.6296 9.74729 22 10.1965 22H11.5557C12.0047 22 12.3723 21.6296 12.3723 21.171V20.0296H17.5814V21.171C17.5814 21.6296 17.949 22 18.3982 22H19.7572C20.2123 22 20.5798 21.6296 20.5798 21.171V20.0296H20.8742C21.4926 20.0296 22 19.5181 22 18.8948V17.4308C22 16.6959 21.6791 16.0256 21.1425 15.5729V14.3382ZM10.9749 18.4358C10.6055 18.8079 10.0441 18.7559 9.72653 18.4358C9.37665 18.0558 9.38446 17.5227 9.72653 17.1776C10.0474 16.8484 10.6599 16.8484 10.9749 17.1776C11.3187 17.4781 11.3375 18.0946 10.9749 18.4358ZM13.6466 18.3956H16.3475C16.6742 18.3956 16.9308 18.1311 16.9308 17.8077C16.9308 17.4843 16.6742 17.2197 16.3475 17.2197H13.6466C13.3258 17.2197 13.0632 17.4843 13.0632 17.8077C13.0632 18.1311 13.3258 18.3956 13.6466 18.3956ZM10.2342 14.9966C10.2226 14.9978 10.0006 15.0231 9.98926 15.026V14.3381C9.98926 12.5801 11.4067 11.1572 13.145 11.1572H16.8201C18.5584 11.1572 19.9759 12.5801 19.9759 14.3381V15.026L19.9643 15.0243C19.8019 15.0009 19.731 14.9907 19.5617 14.9907C16.9623 14.9907 15.0918 14.9905 13.7448 14.9903C10.3132 14.9899 10.279 14.9899 10.2457 14.9951L10.2447 14.9952C10.242 14.9956 10.2391 14.9961 10.2342 14.9966ZM19.025 18.4245C19.3804 18.8095 19.9879 18.757 20.2558 18.4245C20.6649 18.0263 20.5944 17.267 19.9758 16.9899C19.6549 16.8605 19.2641 16.9369 19.025 17.1839C18.6937 17.4698 18.6759 18.1198 19.025 18.4245Z" fill="#0E286A"/>
</svg>
