<svg xmlns="http://www.w3.org/2000/svg" width="16" height="16" fill="none" viewBox="0 0 16 16">
  <path fill="#000" fill-rule="evenodd" d="M8 .667A7.312 7.312 0 0 0 .667 8 7.312 7.312 0 0 0 8 15.333 7.312 7.312 0 0 0 15.333 8 7.312 7.312 0 0 0 8 .667ZM8 14c-3.333 0-6-2.667-6-6s2.667-6 6-6 6 2.667 6 6-2.667 6-6 6Zm2.466-3.533a.645.645 0 0 0 0-.934l-1.8-1.8V4c0-.4-.266-.667-.666-.667S7.333 3.6 7.333 4v4c0 .2.067.333.2.467l2 2c.133.133.267.2.467.2s.333-.067.466-.2Z" clip-rule="evenodd"/>
  <mask id="a" width="16" height="16" x="0" y="0" maskUnits="userSpaceOnUse" style="mask-type:luminance">
    <path fill="#fff" fill-rule="evenodd" d="M8 .667A7.312 7.312 0 0 0 .667 8 7.312 7.312 0 0 0 8 15.333 7.312 7.312 0 0 0 15.333 8 7.312 7.312 0 0 0 8 .667ZM8 14c-3.333 0-6-2.667-6-6s2.667-6 6-6 6 2.667 6 6-2.667 6-6 6Zm2.466-3.533a.645.645 0 0 0 0-.934l-1.8-1.8V4c0-.4-.266-.667-.666-.667S7.333 3.6 7.333 4v4c0 .2.067.333.2.467l2 2c.133.133.267.2.467.2s.333-.067.466-.2Z" clip-rule="evenodd"/>
  </mask>
  <g mask="url(#a)">
    <path fill="#D65656" d="M0 0h16v16H0z"/>
  </g>
</svg>
