<svg width="16" height="16" viewBox="0 0 16 16" fill="none" xmlns="http://www.w3.org/2000/svg">
<path fill-rule="evenodd" clip-rule="evenodd" d="M7.99984 0.666687C3.93317 0.666687 0.666504 3.93335 0.666504 8.00002C0.666504 12.0667 3.93317 15.3334 7.99984 15.3334C12.0665 15.3334 15.3332 12.0667 15.3332 8.00002C15.3332 3.93335 12.0665 0.666687 7.99984 0.666687ZM7.99992 14.0001C4.66659 14.0001 1.99992 11.3334 1.99992 8.00011C1.99992 4.66677 4.66659 2.00011 7.99992 2.00011C11.3333 2.00011 13.9999 4.66677 13.9999 8.00011C13.9999 11.3334 11.3333 14.0001 7.99992 14.0001ZM10.4665 10.4668C10.7331 10.2001 10.7331 9.80014 10.4665 9.53347L8.66645 7.73347V4.00014C8.66645 3.60014 8.39979 3.33347 7.99979 3.33347C7.59979 3.33347 7.33312 3.60014 7.33312 4.00014V8.00014C7.33312 8.20014 7.39979 8.33347 7.53312 8.4668L9.53312 10.4668C9.66645 10.6001 9.79979 10.6668 9.99979 10.6668C10.1998 10.6668 10.3331 10.6001 10.4665 10.4668Z" fill="black"/>
<mask id="mask0_3251_67909" style="mask-type:luminance" maskUnits="userSpaceOnUse" x="0" y="0" width="16" height="16">
<path fill-rule="evenodd" clip-rule="evenodd" d="M7.99984 0.666687C3.93317 0.666687 0.666504 3.93335 0.666504 8.00002C0.666504 12.0667 3.93317 15.3334 7.99984 15.3334C12.0665 15.3334 15.3332 12.0667 15.3332 8.00002C15.3332 3.93335 12.0665 0.666687 7.99984 0.666687ZM7.99992 14.0001C4.66659 14.0001 1.99992 11.3334 1.99992 8.00011C1.99992 4.66677 4.66659 2.00011 7.99992 2.00011C11.3333 2.00011 13.9999 4.66677 13.9999 8.00011C13.9999 11.3334 11.3333 14.0001 7.99992 14.0001ZM10.4665 10.4668C10.7331 10.2001 10.7331 9.80014 10.4665 9.53347L8.66645 7.73347V4.00014C8.66645 3.60014 8.39979 3.33347 7.99979 3.33347C7.59979 3.33347 7.33312 3.60014 7.33312 4.00014V8.00014C7.33312 8.20014 7.39979 8.33347 7.53312 8.4668L9.53312 10.4668C9.66645 10.6001 9.79979 10.6668 9.99979 10.6668C10.1998 10.6668 10.3331 10.6001 10.4665 10.4668Z" fill="white"/>
</mask>
<g mask="url(#mask0_3251_67909)">
<rect width="16" height="16" fill="#D65656"/>
</g>
</svg>
