<svg xmlns="http://www.w3.org/2000/svg" width="24" height="24" fill="none" viewBox="0 0 24 24">
  <path fill="#0E286A" fill-rule="evenodd" d="m22 10.626-1.762-1.244h-.018V6.276h-.002L14.57 1l-.002.003H3.776V9.39L2 10.67v7.019h1.776v5.31L20.22 23v-5.311h1.776v-2.191L22 10.626Zm-8.225-8.867-.005 5.267 5.657.006v3.598H4.567V1.759h9.208Zm5.652 20.485H4.567v-4.555h14.86v4.555Z" clip-rule="evenodd"/>
  <path fill="#fff" d="M6.882 15.885a.123.123 0 0 1-.087-.028.115.115 0 0 1-.03-.08V12.68c0-.035.01-.061.03-.08a.112.112 0 0 1 .087-.034H8.96c.038 0 .066.011.087.034.02.019.03.045.03.08v.19c0 .035-.01.062-.03.08a.123.123 0 0 1-.087.029H7.26v1.105h1.6c.037 0 .065.01.086.033.02.019.03.046.03.08v.19c0 .032-.01.058-.03.08a.123.123 0 0 1-.087.03h-1.6v1.28a.106.106 0 0 1-.035.08.123.123 0 0 1-.086.028h-.255ZM9.857 15.885a.123.123 0 0 1-.087-.028.115.115 0 0 1-.03-.08v-3.101c0-.032.01-.057.03-.076a.112.112 0 0 1 .087-.034h.27c.034 0 .06.011.081.034a.092.092 0 0 1 .036.075v3.101a.106.106 0 0 1-.036.08.115.115 0 0 1-.081.03h-.27ZM11.25 15.885a.123.123 0 0 1-.087-.028.115.115 0 0 1-.03-.08v-3.101c0-.032.01-.057.03-.076a.112.112 0 0 1 .086-.034h.27c.034 0 .062.011.082.034.02.019.03.044.03.075v2.798h1.697c.037 0 .066.01.086.033.02.019.031.046.031.08v.19c0 .032-.01.059-.03.08a.122.122 0 0 1-.087.03h-2.079ZM14.12 15.885a.123.123 0 0 1-.087-.028.115.115 0 0 1-.03-.08V12.68c0-.035.01-.061.03-.08a.112.112 0 0 1 .087-.034h2.104c.037 0 .066.011.086.034.02.019.03.045.03.08v.18c0 .035-.01.062-.03.081a.122.122 0 0 1-.086.028h-1.732v1.039h1.62c.037 0 .066.01.086.033.02.019.03.046.03.08v.176c0 .032-.01.058-.03.08-.02.02-.05.029-.086.029h-1.62v1.076h1.772c.038 0 .067.01.087.029.02.019.03.046.03.08v.185c0 .032-.01.059-.03.08a.123.123 0 0 1-.087.03H14.12Z"/>
</svg>
