<svg xmlns="http://www.w3.org/2000/svg" width="24" height="24" fill="none" viewBox="0 0 24 24">
  <rect width="24" height="24" fill="#C3E1FF" rx="12"/>
  <rect width="19.2" height="19.2" x="2.4" y="2.4" fill="#fff" stroke="#379AFF" rx="9.6"/>
  <path fill="#0E286A" d="M9.455 12.8c.845 0 1.527-.715 1.527-1.6 0-.886-.682-1.6-1.527-1.6-.845 0-1.527.714-1.527 1.6 0 .885.682 1.6 1.527 1.6Z"/>
  <path fill="#0E286A" d="M15.563 9.067h-3.672a.4.4 0 0 0-.4.4v3.466a.4.4 0 0 1-.4.4H7.818a.4.4 0 0 1-.4-.4V8.4a.4.4 0 0 0-.4-.4H6.8a.4.4 0 0 0-.4.4v7.2c0 .22.179.4.4.4h.218a.4.4 0 0 0 .4-.4v-.8c0-.22.18-.4.4-.4h8.364c.22 0 .4.18.4.4v.8c0 .22.179.4.4.4h.218a.4.4 0 0 0 .4-.4v-4.4c0-1.179-.911-2.133-2.037-2.133Z"/>
</svg>
