<svg width="16" height="16" viewBox="0 0 16 16" fill="none" xmlns="http://www.w3.org/2000/svg">
<path fill-rule="evenodd" clip-rule="evenodd" d="M11.7687 6.18838L10.9946 6.23744C10.6929 6.25654 10.4104 6.4021 10.2197 6.63673L4.46877 13.7676C4.31134 13.96 4.07882 14.0771 3.81332 14.0983C3.78507 14.1006 3.75672 14.1017 3.72837 14.1017C3.46358 14.1017 3.19869 14.0044 3.00598 13.8336C2.79265 13.6445 2.65825 13.3568 2.64639 13.0638C2.63563 12.7977 2.72399 12.5529 2.89509 12.3745L9.28649 5.80858C9.4961 5.59164 9.60678 5.29377 9.58959 4.99189L9.54546 4.21752L9.54525 4.21339C9.52535 3.65999 9.75295 3.13372 10.1698 2.7693L10.9879 2.05404C11.7001 1.43147 12.6124 1.1133 13.5575 1.15853C13.7431 1.16738 13.9219 1.24016 14.0609 1.36341C14.1998 1.48656 14.2935 1.65535 14.3246 1.83851C14.4827 2.77111 14.2763 3.71528 13.7436 4.49699L13.1316 5.39491C12.8198 5.85251 12.3246 6.14153 11.7729 6.18808L11.7687 6.18838ZM4.16218 13.519L9.91261 6.38875C10.1731 6.06826 10.5581 5.86982 10.9695 5.84368L11.7415 5.79483C12.1734 5.75773 12.5609 5.53124 12.8051 5.17296L13.4171 4.27494C13.892 3.57807 14.076 2.73645 13.9351 1.90498C13.919 1.81038 13.8706 1.72312 13.7987 1.65949C13.7269 1.59575 13.6346 1.55815 13.5387 1.55353C12.6964 1.51352 11.8828 1.79691 11.2478 2.35193L10.4297 3.06719C10.1033 3.35259 9.92487 3.76445 9.93985 4.19763L9.98399 4.96999C10.0073 5.38155 9.85652 5.78759 9.57001 6.08405L3.17911 12.6495C3.08401 12.7486 3.03465 12.8906 3.04109 13.0484C3.04863 13.236 3.13347 13.4192 3.26798 13.5385C3.40249 13.6578 3.5945 13.7201 3.78178 13.7051C3.93921 13.6925 4.07432 13.6264 4.16218 13.519Z" fill="#7B7988"/>
<path d="M10.9946 6.23744L11.0009 6.33724L11.0009 6.33724L10.9946 6.23744ZM11.7687 6.18838L11.7751 6.28818L11.776 6.28811L11.7687 6.18838ZM10.2197 6.63673L10.1421 6.57366L10.1419 6.57396L10.2197 6.63673ZM4.46877 13.7676L4.54616 13.8309L4.54661 13.8304L4.46877 13.7676ZM3.81332 14.0983L3.80536 13.9986L3.80516 13.9986L3.81332 14.0983ZM3.00598 13.8336L2.93964 13.9084L2.93965 13.9084L3.00598 13.8336ZM2.64639 13.0638L2.54647 13.0679L2.54647 13.0679L2.64639 13.0638ZM2.89509 12.3745L2.82343 12.3047L2.82291 12.3053L2.89509 12.3745ZM9.28649 5.80858L9.35815 5.87833L9.35841 5.87806L9.28649 5.80858ZM9.58959 4.99189L9.68943 4.9862L9.68942 4.9862L9.58959 4.99189ZM9.54546 4.21752L9.44557 4.22239L9.44562 4.22321L9.54546 4.21752ZM9.54525 4.21339L9.44531 4.21699L9.44537 4.21827L9.54525 4.21339ZM10.1698 2.7693L10.2357 2.84459L10.2357 2.84459L10.1698 2.7693ZM10.9879 2.05404L10.9221 1.97876L10.9221 1.97876L10.9879 2.05404ZM13.5575 1.15853L13.5528 1.25842L13.5528 1.25842L13.5575 1.15853ZM14.0609 1.36341L13.9946 1.43824L13.9946 1.43825L14.0609 1.36341ZM14.3246 1.83851L14.4232 1.82179L14.4232 1.82179L14.3246 1.83851ZM13.7436 4.49699L13.8263 4.55331L13.8263 4.5533L13.7436 4.49699ZM13.1316 5.39491L13.049 5.33859L13.049 5.33859L13.1316 5.39491ZM11.7729 6.18808L11.7802 6.28782L11.7813 6.28772L11.7729 6.18808ZM9.91261 6.38875L9.83501 6.32568L9.83477 6.32597L9.91261 6.38875ZM4.16218 13.519L4.23957 13.5824L4.24002 13.5818L4.16218 13.519ZM10.9695 5.84368L10.9632 5.74388L10.9631 5.74389L10.9695 5.84368ZM11.7415 5.79483L11.7478 5.89465L11.7501 5.89446L11.7415 5.79483ZM12.8051 5.17296L12.8878 5.22928V5.22927L12.8051 5.17296ZM13.4171 4.27494L13.4998 4.33125L13.4998 4.33125L13.4171 4.27494ZM13.9351 1.90498L14.0337 1.88826L14.0336 1.88821L13.9351 1.90498ZM13.7987 1.65949L13.7324 1.73431L13.7325 1.73436L13.7987 1.65949ZM13.5387 1.55353L13.5435 1.45365L13.5434 1.45364L13.5387 1.55353ZM11.2478 2.35193L11.182 2.27664L11.182 2.27664L11.2478 2.35193ZM10.4297 3.06719L10.3639 2.9919L10.3639 2.99191L10.4297 3.06719ZM9.93985 4.19763L9.83989 4.20109L9.84002 4.20333L9.93985 4.19763ZM9.98399 4.96999L10.0838 4.96433L10.0838 4.96429L9.98399 4.96999ZM9.57001 6.08405L9.64167 6.1538L9.64192 6.15354L9.57001 6.08405ZM3.17911 12.6495L3.10745 12.5797L3.10695 12.5802L3.17911 12.6495ZM3.04109 13.0484L3.14101 13.0443L3.141 13.0443L3.04109 13.0484ZM3.26798 13.5385L3.20162 13.6133L3.20165 13.6134L3.26798 13.5385ZM3.78178 13.7051L3.77382 13.6054L3.77381 13.6054L3.78178 13.7051ZM11.0009 6.33724L11.7751 6.28818L11.7624 6.08858L10.9882 6.13764L11.0009 6.33724ZM10.2973 6.69981C10.4704 6.48682 10.7271 6.35457 11.0009 6.33724L10.9883 6.13764C10.6587 6.1585 10.3504 6.31738 10.1421 6.57366L10.2973 6.69981ZM4.54661 13.8304L10.2975 6.69951L10.1419 6.57396L4.39093 13.7048L4.54661 13.8304ZM3.82128 14.1979C4.11164 14.1747 4.37011 14.0461 4.54616 13.8309L4.39137 13.7043C4.25257 13.8739 4.046 13.9794 3.80536 13.9986L3.82128 14.1979ZM3.72837 14.2017C3.75932 14.2017 3.79039 14.2005 3.82148 14.1979L3.80516 13.9986C3.77975 14.0007 3.75412 14.0017 3.72837 14.0017V14.2017ZM2.93965 13.9084C3.15151 14.0962 3.44031 14.2017 3.72837 14.2017V14.0017C3.48686 14.0017 3.24587 13.9126 3.0723 13.7587L2.93965 13.9084ZM2.54647 13.0679C2.5594 13.3871 2.70532 13.7007 2.93964 13.9084L3.07231 13.7587C2.87999 13.5883 2.7571 13.3264 2.7463 13.0598L2.54647 13.0679ZM2.82291 12.3053C2.63145 12.505 2.53471 12.7769 2.54647 13.0679L2.7463 13.0598C2.73655 12.8185 2.81654 12.6009 2.96727 12.4437L2.82291 12.3053ZM9.21484 5.73883L2.82344 12.3047L2.96675 12.4443L9.35815 5.87833L9.21484 5.73883ZM9.48975 4.99757C9.50535 5.27163 9.40478 5.54224 9.21458 5.7391L9.35841 5.87806C9.58742 5.64104 9.7082 5.31592 9.68943 4.9862L9.48975 4.99757ZM9.44562 4.22321L9.48975 4.99758L9.68942 4.9862L9.64529 4.21183L9.44562 4.22321ZM9.44537 4.21827L9.44557 4.22239L9.64534 4.21264L9.64514 4.20852L9.44537 4.21827ZM10.104 2.69401C9.66446 3.07825 9.42433 3.6335 9.44532 4.21699L9.64519 4.2098C9.62637 3.68647 9.84144 3.18919 10.2357 2.84459L10.104 2.69401ZM10.9221 1.97876L10.104 2.69402L10.2357 2.84459L11.0538 2.12933L10.9221 1.97876ZM13.5623 1.05865C12.5913 1.01217 11.6537 1.33918 10.9221 1.97876L11.0538 2.12933C11.7464 1.52376 12.6334 1.21442 13.5528 1.25842L13.5623 1.05865ZM14.1272 1.28858C13.9711 1.15022 13.7707 1.06858 13.5623 1.05865L13.5528 1.25842C13.7156 1.26618 13.8726 1.33011 13.9946 1.43824L14.1272 1.28858ZM14.4232 1.82179C14.3883 1.61615 14.2832 1.42686 14.1272 1.28858L13.9946 1.43825C14.1164 1.54626 14.1987 1.69454 14.226 1.85523L14.4232 1.82179ZM13.8263 4.5533C14.3735 3.75023 14.5856 2.77989 14.4232 1.82179L14.226 1.85523C14.3798 2.76233 14.1791 3.68032 13.661 4.44067L13.8263 4.5533ZM13.2142 5.45123L13.8263 4.55331L13.661 4.44066L13.049 5.33859L13.2142 5.45123ZM11.7813 6.28772C12.363 6.23865 12.8854 5.93371 13.2142 5.45122L13.049 5.33859C12.7541 5.77131 12.2862 6.04442 11.7645 6.08843L11.7813 6.28772ZM11.776 6.28811L11.7802 6.28781L11.7656 6.08834L11.7614 6.08864L11.776 6.28811ZM9.83477 6.32597L4.08434 13.4563L4.24002 13.5818L9.99045 6.45153L9.83477 6.32597ZM10.9631 5.74389C10.5239 5.77179 10.1131 5.98357 9.83501 6.32568L9.99021 6.45182C10.2331 6.15296 10.5923 5.96785 10.9758 5.94348L10.9631 5.74389ZM11.7352 5.69503L10.9632 5.74388L10.9758 5.94348L11.7478 5.89463L11.7352 5.69503ZM12.7225 5.11664C12.4952 5.45008 12.1349 5.66067 11.733 5.69519L11.7501 5.89446C12.2119 5.85479 12.6266 5.61241 12.8878 5.22928L12.7225 5.11664ZM13.3345 4.21862L12.7225 5.11664L12.8878 5.22927L13.4998 4.33125L13.3345 4.21862ZM13.8365 1.92169C13.9731 2.72767 13.7948 3.54312 13.3345 4.21862L13.4998 4.33125C13.9892 3.61303 14.1789 2.74523 14.0337 1.88826L13.8365 1.92169ZM13.7325 1.73436C13.7872 1.78282 13.8242 1.84954 13.8365 1.92174L14.0336 1.88821C14.0137 1.77122 13.954 1.66343 13.865 1.58461L13.7325 1.73436ZM13.5339 1.65341C13.607 1.65694 13.6776 1.68569 13.7324 1.73431L13.8651 1.58467C13.7762 1.50582 13.6622 1.45937 13.5435 1.45365L13.5339 1.65341ZM11.3136 2.42722C11.9291 1.88922 12.7175 1.61463 13.5339 1.65342L13.5434 1.45364C12.6754 1.41241 11.8364 1.7046 11.182 2.27664L11.3136 2.42722ZM10.4955 3.14247L11.3137 2.42721L11.182 2.27664L10.3639 2.9919L10.4955 3.14247ZM10.0398 4.19417C10.0259 3.79104 10.1918 3.40809 10.4956 3.14247L10.3639 2.99191C10.0149 3.29709 9.8239 3.73787 9.83991 4.20109L10.0398 4.19417ZM10.0838 4.96429L10.0397 4.19193L9.84002 4.20333L9.88415 4.9757L10.0838 4.96429ZM9.64192 6.15354C9.94782 5.83701 10.1087 5.40373 10.0838 4.96433L9.88415 4.97565C9.90589 5.35938 9.76521 5.73817 9.4981 6.01455L9.64192 6.15354ZM3.25077 12.7192L9.64167 6.1538L9.49835 6.0143L3.10745 12.5797L3.25077 12.7192ZM3.141 13.0443C3.1355 12.9095 3.17778 12.7953 3.25127 12.7187L3.10695 12.5802C2.99025 12.7019 2.9338 12.8718 2.94117 13.0524L3.141 13.0443ZM3.33434 13.4637C3.22115 13.3633 3.14751 13.2062 3.14101 13.0443L2.94117 13.0524C2.94974 13.2659 3.04579 13.4751 3.20162 13.6133L3.33434 13.4637ZM3.77381 13.6054C3.61231 13.6183 3.44748 13.564 3.33431 13.4637L3.20165 13.6134C3.35749 13.7515 3.57668 13.8218 3.78975 13.8048L3.77381 13.6054ZM4.08479 13.4557C4.01659 13.539 3.90819 13.5947 3.77382 13.6054L3.78974 13.8048C3.97022 13.7904 4.13205 13.7138 4.23957 13.5824L4.08479 13.4557Z" fill="#7B7988"/>
<path d="M14.0116 13.1491L9.72615 9.24586C9.64553 9.17237 9.52067 9.1782 9.44709 9.25883C9.3737 9.33945 9.37953 9.46441 9.46016 9.53789L13.7445 13.4402C13.8464 13.5344 13.9042 13.6732 13.9073 13.8311C13.9111 14.0189 13.8374 14.2067 13.7102 14.3339C13.5831 14.461 13.3955 14.5349 13.2074 14.531C13.0495 14.5279 12.9107 14.4701 12.8175 14.3693L8.99883 10.1769C8.92534 10.0961 8.80039 10.0904 8.71976 10.1638C8.63914 10.2373 8.63331 10.3622 8.7068 10.4429L12.5264 14.6363C12.6943 14.8179 12.9333 14.9208 13.1996 14.926C13.2066 14.9261 13.2134 14.9262 13.2203 14.9262C13.5065 14.9262 13.7927 14.8101 13.9895 14.6133C14.1911 14.4116 14.308 14.1164 14.3022 13.8233C14.297 13.557 14.1941 13.318 14.0116 13.1491Z" fill="#7B7988" stroke="#7B7988" stroke-width="0.2"/>
<path d="M3.38331 6.20077C3.71023 6.50195 4.13497 6.67365 4.5793 6.68431C4.58071 6.68441 4.58212 6.68441 4.58342 6.68441L5.3591 6.68682C5.66149 6.68773 5.95212 6.8161 6.15609 7.03837L6.49779 7.41344C6.53679 7.45627 6.59017 7.47798 6.64386 7.47798C6.69131 7.47798 6.73896 7.46099 6.77675 7.42651C6.85748 7.35302 6.86331 7.22807 6.78982 7.14744L6.44762 6.77187C6.16896 6.46807 5.77268 6.29315 5.36041 6.29174L4.58684 6.28933C4.24313 6.28058 3.91451 6.14899 3.65987 5.91848L1.41195 3.24623C1.38903 3.21889 1.39074 3.17928 1.41597 3.15405C1.43326 3.13666 1.45357 3.13414 1.46412 3.13414C1.47468 3.13414 1.49499 3.13666 1.51238 3.15405L3.55854 5.20031C3.7608 5.40257 4.08993 5.40257 4.29219 5.20021L4.53266 4.95984V4.95974L4.9596 4.5328C4.9596 4.5328 4.9597 4.5328 4.9597 4.5327L4.9598 4.5326L5.20017 4.29223C5.40243 4.08997 5.40243 3.76084 5.20017 3.55858L3.15401 1.51242C3.12747 1.48588 3.12747 1.44255 3.15401 1.41601C3.17924 1.39078 3.21885 1.38907 3.24619 1.41199L5.91844 3.66001C6.14905 3.91455 6.28065 4.24327 6.28939 4.58688L6.2917 5.36055C6.29311 5.77272 6.46813 6.169 6.77233 6.44827L7.13846 6.78172C7.21918 6.85521 7.34404 6.84938 7.41752 6.76875C7.49091 6.68803 7.48508 6.56317 7.40445 6.48968L7.03893 6.15673C6.81606 5.95226 6.68779 5.66153 6.68678 5.35924L6.68437 4.58356C6.68437 4.58216 6.68437 4.58075 6.68427 4.57934C6.67361 4.13501 6.50191 3.71027 6.20073 3.38335C6.1951 3.37722 6.18906 3.37139 6.18263 3.36596L3.50043 1.1097C3.31506 0.953681 3.04604 0.965342 2.87474 1.13664C2.69409 1.31729 2.69409 1.61114 2.87474 1.79169L4.9209 3.83794C4.96915 3.8862 4.96915 3.96471 4.9209 4.01296L4.82007 4.11369L2.53958 1.83331C2.46247 1.7561 2.33742 1.7561 2.26031 1.83331C2.18321 1.91041 2.18321 2.03547 2.26031 2.11257L4.5408 4.39306L4.39302 4.54074L2.11253 2.26035C2.03543 2.18324 1.91037 2.18324 1.83327 2.26035C1.75606 2.33746 1.75606 2.46251 1.83327 2.53962L4.11365 4.82011L4.01292 4.92094C3.96467 4.96919 3.88616 4.96919 3.8379 4.92094L1.79165 2.87478C1.70419 2.78732 1.58788 2.73907 1.46412 2.73907C1.34037 2.73907 1.22406 2.78732 1.1366 2.87478C0.965302 3.04608 0.953742 3.3151 1.10966 3.50057L3.36602 6.18267C3.37135 6.1891 3.37718 6.19514 3.38331 6.20077Z" fill="#7B7988" stroke="#7B7988" stroke-width="0.2"/>
</svg>
