<svg xmlns="http://www.w3.org/2000/svg" width="17" height="16" fill="none" viewBox="0 0 17 16">
  <path fill="#379AFF" d="M16.004 14.098c0 .25-.084.417-.25.584-.167.167-1.402 1.318-1.735 1.318-2.42-.25-4.755-1.085-6.84-2.42-1.92-1.167-3.505-2.835-4.756-4.754C1.088 6.74.254 4.405.003 1.986.004 1.734 1.156.5 1.239.333 1.405.167 1.656 0 1.906 0h2.502c.418 0 .751.334.835.75.083.835.333 1.753.667 2.503.083.334 0 .668-.167.918L4.66 5.172a.887.887 0 0 0-.167 1.001 13.688 13.688 0 0 0 5.339 5.34c.334.166.75.166 1-.168l1.085-1.084c.25-.25.584-.334.918-.167.834.334 1.668.5 2.502.667.334.084.668.417.668.835v2.502Z"/>
</svg>
