<svg xmlns="http://www.w3.org/2000/svg" width="16" height="16" fill="none" viewBox="0 0 16 16">
  <path stroke="#101217" stroke-linecap="round" stroke-linejoin="round" d="M14.665 11.28v2a1.334 1.334 0 0 1-1.453 1.333 13.193 13.193 0 0 1-5.754-2.047 13 13 0 0 1-4-4 13.193 13.193 0 0 1-2.046-5.78 1.333 1.333 0 0 1 1.326-1.453h2a1.333 1.333 0 0 1 1.334 1.146 8.56 8.56 0 0 0 .466 1.874 1.333 1.333 0 0 1-.3 1.406l-.846.847a10.667 10.667 0 0 0 4 4l.846-.847a1.334 1.334 0 0 1 1.407-.3 8.56 8.56 0 0 0 1.873.467 1.334 1.334 0 0 1 1.147 1.353Z"/>
</svg>
