<svg xmlns="http://www.w3.org/2000/svg" width="24" height="24" fill="none" viewBox="0 0 24 24">
  <rect width="20" height="20" x="2" y="2" fill="#D65656" rx="2"/>
  <path fill="#fff" d="M17.583 16.416a.806.806 0 0 1 0 1.167.757.757 0 0 1-.583.25.757.757 0 0 1-.584-.25L12 13.167l-4.417 4.416a.757.757 0 0 1-.583.25.757.757 0 0 1-.583-.25.806.806 0 0 1 0-1.166L10.832 12 6.416 7.583a.806.806 0 0 1 0-1.167.806.806 0 0 1 1.167 0L12 10.834l4.416-4.417a.806.806 0 0 1 1.167 0 .806.806 0 0 1 0 1.167L13.167 12l4.416 4.416Z"/>
</svg>
