<svg width="24" height="24" viewBox="0 0 24 24" fill="none" xmlns="http://www.w3.org/2000/svg">
<rect x="1.5" y="1.5" width="21" height="21" rx="2" fill="#D65656"/>
<path d="M17.8625 16.6375C18.2125 16.9875 18.2125 17.5125 17.8625 17.8625C17.6875 18.0375 17.5125 18.125 17.25 18.125C16.9875 18.125 16.8125 18.0375 16.6375 17.8625L12 13.225L7.3625 17.8625C7.1875 18.0375 7.0125 18.125 6.75 18.125C6.4875 18.125 6.3125 18.0375 6.1375 17.8625C5.7875 17.5125 5.7875 16.9875 6.1375 16.6375L10.775 12L6.1375 7.3625C5.7875 7.0125 5.7875 6.4875 6.1375 6.1375C6.4875 5.7875 7.0125 5.7875 7.3625 6.1375L12 10.775L16.6375 6.1375C16.9875 5.7875 17.5125 5.7875 17.8625 6.1375C18.2125 6.4875 18.2125 7.0125 17.8625 7.3625L13.225 12L17.8625 16.6375Z" fill="black"/>
<mask id="mask0_4503_27143" style="mask-type:alpha" maskUnits="userSpaceOnUse" x="5" y="5" width="14" height="14">
<path d="M17.8625 16.6375C18.2125 16.9875 18.2125 17.5125 17.8625 17.8625C17.6875 18.0375 17.5125 18.125 17.25 18.125C16.9875 18.125 16.8125 18.0375 16.6375 17.8625L12 13.225L7.3625 17.8625C7.1875 18.0375 7.0125 18.125 6.75 18.125C6.4875 18.125 6.3125 18.0375 6.1375 17.8625C5.7875 17.5125 5.7875 16.9875 6.1375 16.6375L10.775 12L6.1375 7.3625C5.7875 7.0125 5.7875 6.4875 6.1375 6.1375C6.4875 5.7875 7.0125 5.7875 7.3625 6.1375L12 10.775L16.6375 6.1375C16.9875 5.7875 17.5125 5.7875 17.8625 6.1375C18.2125 6.4875 18.2125 7.0125 17.8625 7.3625L13.225 12L17.8625 16.6375Z" fill="white"/>
</mask>
<g mask="url(#mask0_4503_27143)">
<rect x="1.5" y="1.5" width="21" height="21" fill="white"/>
</g>
</svg>
