<svg width="24" height="24" viewBox="0 0 24 24" fill="none" xmlns="http://www.w3.org/2000/svg">
<path d="M21.1376 14.8948C20.5346 17.0013 19.207 18.8467 17.3809 20.1167C15.5549 21.3866 13.3434 22.0025 11.1233 21.8594C8.90317 21.7162 6.81181 20.8229 5.20555 19.3317C3.59928 17.8404 2.57749 15.8435 2.31427 13.6811C2.05105 11.5188 2.56269 9.32476 3.76201 7.47295C4.96133 5.62114 6.77413 4.2261 8.89153 3.52552C11.0089 2.82495 13.2999 2.8622 15.3741 3.63091C17.4484 4.39962 19.1775 5.85224 20.2669 7.74126" stroke="#009AFF" stroke-width="1.5" stroke-linecap="round"/>
<path d="M22.1372 4.45535L20.834 9.0079L16.2012 7.78693" stroke="#009AFF" stroke-width="1.5" stroke-linecap="round" stroke-linejoin="round"/>
<path d="M11.0342 7.77246V12.7828L14.8977 15.2879" stroke="#009AFF" stroke-width="1.5" stroke-linecap="round"/>
</svg>
