<svg xmlns="http://www.w3.org/2000/svg" width="24" height="24" fill="none" viewBox="0 0 24 24">
  <path fill="#0E286A" fill-rule="evenodd" d="M2 12C2 6.467 6.467 2 12 2s10 4.467 10 10-4.467 10-10 10S2 17.533 2 12Zm13.333-1.667a.55.55 0 0 0-.555-.555h-.622a2.625 2.625 0 0 0-.49-1.111h1.112a.55.55 0 0 0 .555-.556.55.55 0 0 0-.555-.555H9.222a.55.55 0 0 0-.555.555.55.55 0 0 0 .555.556h2.223c.733 0 1.355.466 1.577 1.11h-3.8a.55.55 0 0 0-.555.556.55.55 0 0 0 .555.556H13c-.244.644-.844 1.111-1.578 1.111H9.2a.561.561 0 0 0-.51.333.546.546 0 0 0 .11.6l3.334 3.334a.535.535 0 0 0 .4.155.536.536 0 0 0 .4-.155c.222-.2.222-.556 0-.778l-2.378-2.378h.888c1.334 0 2.445-.955 2.711-2.222h.623a.55.55 0 0 0 .555-.556Z" clip-rule="evenodd"/>
</svg>
