<svg width="16" height="16" viewBox="0 0 16 16" fill="none" xmlns="http://www.w3.org/2000/svg">
<path fill-rule="evenodd" clip-rule="evenodd" d="M4.7502 10.9347C4.92082 11.7812 5.71547 12.3952 6.64093 12.3952H11.7759C12.4516 12.3952 13 11.8847 13 11.2558V9.95344C13 9.4787 12.7972 9.02293 12.4361 8.68697C12.0752 8.35165 11.5862 8.16276 11.0764 8.16276H8.16225C8.07758 8.16276 8.00556 8.10673 7.99022 8.02922L6.90455 2.47032C6.73803 1.61862 5.94138 1 5.01169 1H4.22407C3.86034 1 3.51478 1.15109 3.28257 1.4115C3.04965 1.67258 2.95386 2.0164 3.02096 2.34985L4.75011 10.9343L4.7502 10.9347ZM5.78199 10.7543L4.05284 2.16984C4.04301 2.12231 4.05706 2.07347 4.08997 2.03565C4.12357 1.99858 4.17252 1.977 4.22428 1.977H5.0119C5.43442 1.977 5.79674 2.25824 5.87225 2.6451C6.17578 4.20064 6.7284 7.02859 6.95792 8.204C7.06425 8.74577 7.57071 9.13972 8.16245 9.13972H11.0766C11.3081 9.13972 11.5306 9.22562 11.6942 9.37801C11.8586 9.53106 11.9509 9.73742 11.9509 9.95358V11.2559C11.9509 11.3457 11.8725 11.4187 11.776 11.4187H6.64103C6.22065 11.4187 5.85974 11.1399 5.78209 10.7545L5.78199 10.7543Z" fill="#7B7988"/>
<path fill-rule="evenodd" clip-rule="evenodd" d="M7.48389 11.6497C7.48389 11.6497 6.89697 12.5222 6.40386 13.2573C6.16813 13.609 6.15548 14.0517 6.37095 14.4138C6.58712 14.7764 6.99699 15.0011 7.44187 15.0011H12.1257C12.4146 15.0011 12.6503 14.7823 12.6503 14.5128C12.6503 14.2432 12.4146 14.0244 12.1257 14.0244H7.44187C7.37816 14.0244 7.31949 13.9925 7.2887 13.9404C7.2579 13.8889 7.26001 13.8258 7.29361 13.775L8.37364 12.1667C8.52682 11.9381 8.45199 11.6367 8.20642 11.4941C7.96086 11.3515 7.63707 11.4205 7.48388 11.6497L7.48389 11.6497Z" fill="#7B7988"/>
<path fill-rule="evenodd" clip-rule="evenodd" d="M7.22823 6.53531H11.4252C11.7141 6.53531 11.9498 6.31653 11.9498 6.04695C11.9498 5.77737 11.7141 5.55859 11.4252 5.55859H7.22823C6.93864 5.55859 6.70361 5.77737 6.70361 6.04695C6.70361 6.31653 6.93864 6.53531 7.22823 6.53531Z" fill="#7B7988"/>
</svg>
