<svg width="30" height="30" viewBox="0 0 30 30" fill="none" xmlns="http://www.w3.org/2000/svg">
<rect width="30" height="30" rx="15" fill="#C3E1FF"/>
<rect x="3" y="3" width="24" height="24" rx="12" fill="white" stroke="#379AFF"/>
<path fill-rule="evenodd" clip-rule="evenodd" d="M8.0001 21.5388V22L22 21.9963V21.5388L18.9196 19.3767C19.8496 18.9206 20.4934 17.9629 20.4934 16.8629V10.7985C20.4934 9.25873 19.2325 8 17.6904 8H12.3109C10.7689 8 9.50823 9.25873 9.50823 10.7985V16.8629C9.50823 17.9579 10.1467 18.9092 11.0691 19.3693L8 21.5388L8.0001 21.5388ZM17.4511 19.6613H12.5585L11.7065 20.2712H18.3014L17.4511 19.6613ZM12.1951 16.0642C12.6419 16.0642 13.0029 16.4181 13.0029 16.8555C13.0029 17.2926 12.6419 17.6468 12.1951 17.6468C11.7497 17.6468 11.3886 17.2926 11.3886 16.8555C11.3886 16.4182 11.7497 16.0642 12.1951 16.0642ZM17.8047 16.0642C18.2512 16.0642 18.6122 16.4181 18.6122 16.8555C18.6122 17.2926 18.2512 17.6468 17.8047 17.6468C17.3592 17.6468 16.9982 17.2926 16.9982 16.8555C16.9982 16.4182 17.3592 16.0642 17.8047 16.0642ZM13.4915 8.86685H16.51C17.1385 8.86685 17.1385 9.81573 16.51 9.81573H13.4915C12.863 9.81573 12.863 8.86685 13.4915 8.86685ZM11.7121 10.7003H18.2905C18.8521 10.7003 19.3115 11.159 19.3115 11.7195V13.4937C19.3115 14.0545 18.852 14.5132 18.2905 14.5132H11.7121C11.1505 14.5132 10.6911 14.0545 10.6911 13.4937V11.7195C10.6911 11.1589 11.1505 10.7003 11.7121 10.7003ZM19.0414 20.8017H10.9661L10.1534 21.3838L19.8489 21.3812L19.0414 20.8017L19.0414 20.8017Z" fill="#0E286A"/>
</svg>
