<svg xmlns="http://www.w3.org/2000/svg" width="30" height="30" fill="none" viewBox="0 0 30 30">
  <rect width="30" height="30" fill="#C3E1FF" rx="15"/>
  <rect width="24" height="24" x="3" y="3" fill="#fff" stroke="#379AFF" rx="12"/>
  <path fill="#0E286A" d="M10.203 22c-.244-.167-.264-.315-.082-.55.602-.743 1.204-1.493 1.806-2.236.027-.034.048-.067.102-.134-.223 0-.42.007-.609 0-.75-.047-1.366-.683-1.353-1.427.007-.582.054-1.165.088-1.748.034-.63.068-1.252.109-1.882.006-.174.006-.174.175-.134.63.14 1.19.435 1.732.77.913.563 1.745 1.22 2.543 1.93.236.207.345.207.575 0 .906-.804 1.86-1.555 2.921-2.15.447-.255.913-.463 1.42-.563.088-.014.102 0 .109.08.027.543.054 1.092.088 1.634.033.59.06 1.18.101 1.775.054.73-.243 1.306-.845 1.588-.217.1-.447.134-.683.134h-.426c.108.134.196.247.29.368.535.663 1.069 1.32 1.603 1.982.196.241.176.389-.067.563h-.197c-.135-.034-.21-.14-.29-.241-.284-.342-.17-.295-.616-.295H11.17c-.183 0-.311.054-.42.201-.094.134-.182.288-.365.335h-.196.014Z"/>
  <path fill="#fff" d="M10.4 21.997c.182-.134.297-.328.439-.496.047-.06.095-.087.169-.087h7.987c.075 0 .122.027.17.087.142.168.257.362.44.496h-9.212.006Z"/>
  <path fill="#0E286A" d="M15.013 8.007h2.428c1.041 0 1.9.716 2.049 1.728.068.442.068.897.095 1.346.04.67.074 1.346.114 2.016.007.14-.027.188-.169.214-.568.1-1.088.342-1.589.623-1.021.57-1.948 1.273-2.82 2.036-.088.074-.129.08-.217 0-.973-.85-1.995-1.627-3.158-2.217-.42-.214-.859-.388-1.326-.462-.08-.013-.101-.053-.094-.127.034-.576.06-1.152.094-1.735.027-.435.061-.87.075-1.306.02-.656.23-1.219.744-1.647A1.93 1.93 0 0 1 12.51 8h2.51l-.007.007Z"/>
  <path fill="#fff" d="M11.393 20.82c.148-.18.29-.348.419-.522.047-.06.108-.047.162-.047h5.573c.149 0 .305.007.453 0 .115-.006.183.034.25.12.109.148.23.289.359.45h-7.216ZM17.676 19.656H12.34c.155-.194.297-.369.44-.543.027-.033.074-.026.114-.026h4.234c.054 0 .095 0 .136.046.135.168.263.335.419.523h-.007Z"/>
  <path fill="#0E286A" d="M12.069 17.914a.87.87 0 0 1-.88-.857.87.87 0 0 1 .86-.877c.486 0 .886.375.886.85a.875.875 0 0 1-.873.884h.007ZM18.827 17.044a.875.875 0 0 1-.886.87.867.867 0 1 1 .007-1.734.87.87 0 0 1 .872.864h.007Z"/>
  <path fill="#fff" d="M14.707 11.657v.971c0 .208-.082.308-.298.335-.65.074-1.292.148-1.941.215-.203.02-.4.04-.602.066-.223.034-.386-.08-.386-.308V10.94c0-.18.109-.288.284-.308l2.05-.22c.176-.02.358-.048.534-.054.244-.02.358.093.358.335v.97-.006ZM18.534 11.947v.93c0 .289-.136.396-.426.362-.704-.08-1.407-.154-2.104-.227-.149-.014-.29-.034-.44-.054-.168-.027-.257-.127-.263-.295v-2.009c0-.207.128-.315.351-.301.305.027.61.06.92.094l1.63.18c.223.027.332.127.332.349v.97Z"/>
</svg>
